<?xml version="1.0" encoding="UTF-8"?>
<svg version="1.1" xmlns="http://www.w3.org/2000/svg" width="32" height="32">
<path d="M0 0 C0.1875 2.625 0.1875 2.625 0 5 C0.9590625 5.2165625 0.9590625 5.2165625 1.9375 5.4375 C4 6 4 6 5 7 C5.12667764 9.99018161 5.18520838 12.94694108 5.1875 15.9375 C5.19974609 16.77474609 5.21199219 17.61199219 5.22460938 18.47460938 C5.22750977 19.67633789 5.22750977 19.67633789 5.23046875 20.90234375 C5.23457764 21.63960693 5.23868652 22.37687012 5.24291992 23.13647461 C5 25 5 25 3 27 C0.6015625 27.25878906 0.6015625 27.25878906 -2.375 27.265625 C-3.44234375 27.26820312 -4.5096875 27.27078125 -5.609375 27.2734375 C-7.28773437 27.26183594 -7.28773437 27.26183594 -9 27.25 C-10.11890625 27.25773437 -11.2378125 27.26546875 -12.390625 27.2734375 C-13.45796875 27.27085938 -14.5253125 27.26828125 -15.625 27.265625 C-16.60726563 27.26336914 -17.58953125 27.26111328 -18.6015625 27.25878906 C-21 27 -21 27 -23 25 C-23.25878906 23.18408203 -23.25878906 23.18408203 -23.265625 21.0078125 C-23.26820312 20.22019531 -23.27078125 19.43257812 -23.2734375 18.62109375 C-23.26570313 17.79738281 -23.25796875 16.97367188 -23.25 16.125 C-23.25773437 15.30902344 -23.26546875 14.49304688 -23.2734375 13.65234375 C-23.27085938 12.86214844 -23.26828125 12.07195313 -23.265625 11.2578125 C-23.26336914 10.5373877 -23.26111328 9.81696289 -23.25878906 9.07470703 C-22.95035866 6.6020263 -22.39561219 5.06900403 -21 3 C-19.16821289 2.05517578 -19.16821289 2.05517578 -16.97265625 1.4453125 C-15.78446289 1.11273438 -15.78446289 1.11273438 -14.57226562 0.7734375 C-13.74404297 0.55945313 -12.91582031 0.34546875 -12.0625 0.125 C-11.23814453 -0.1121875 -10.41378906 -0.349375 -9.56445312 -0.59375 C-3.3889283 -2.25928553 -3.3889283 -2.25928553 0 0 Z M-1 15 C0 17 0 17 0 17 Z " fill="#000000" transform="translate(25,3)"/>
</svg>
